solid pseyemount
facet normal -0.0 -0.0 1.0
outer loop
vertex -30.6274353522718 6.66243519264351 0.0
vertex -26.6274353522718 10.6624351926435 0.0
vertex -30.6274353522718 20.6624351926435 0.0
endloop
endfacet
facet normal -0.0 -0.0 1.0
outer loop
vertex -26.6274353522718 10.6624351926435 0.0
vertex -30.6274353522718 6.66243519264351 0.0
vertex -9.62743535227177 6.66243519264351 0.0
endloop
endfacet
facet normal -0.0 -0.0 1.0
outer loop
vertex -26.6274353522718 10.6624351926435 0.0
vertex -9.62743535227177 6.66243519264351 0.0
vertex -9.62743535227177 10.6624351926435 0.0
endloop
endfacet
facet normal -0.0 -0.0 1.0
outer loop
vertex 31.3725646477282 6.66243519264351 0.0
vertex 10.3725646477282 10.6624351926435 0.0
vertex 10.3725646477282 6.66243519264351 0.0
endloop
endfacet
facet normal -0.0 -0.0 1.0
outer loop
vertex 10.3725646477282 10.6624351926435 0.0
vertex 31.3725646477282 6.66243519264351 0.0
vertex 27.3725646477282 10.6624351926435 0.0
endloop
endfacet
facet normal -0.0 -0.0 1.0
outer loop
vertex 27.3725646477282 10.6624351926435 0.0
vertex 31.3725646477282 6.66243519264351 0.0
vertex 27.3725646477282 16.6624351926435 0.0
endloop
endfacet
facet normal -0.0 -0.0 1.0
outer loop
vertex -30.6274353522718 20.6624351926435 0.0
vertex -26.6274353522718 16.6624351926435 0.0
vertex -9.62743535227177 20.6624351926435 0.0
endloop
endfacet
facet normal -0.0 -0.0 1.0
outer loop
vertex -26.6274353522718 16.6624351926435 0.0
vertex -30.6274353522718 20.6624351926435 0.0
vertex -26.6274353522718 10.6624351926435 0.0
endloop
endfacet
facet normal -0.0 -0.0 1.0
outer loop
vertex -9.62743535227177 20.6624351926435 0.0
vertex -26.6274353522718 16.6624351926435 0.0
vertex 27.3725646477282 16.6624351926435 0.0
endloop
endfacet
facet normal -0.0 -0.0 1.0
outer loop
vertex -9.62743535227177 20.6624351926435 0.0
vertex 27.3725646477282 16.6624351926435 0.0
vertex 10.3725646477282 20.6624351926435 0.0
endloop
endfacet
facet normal -0.0 -0.0 1.0
outer loop
vertex -9.62743535227177 20.6624351926435 0.0
vertex 10.3725646477282 20.6624351926435 0.0
vertex -9.62743535227177 26.6624351926435 0.0
endloop
endfacet
facet normal -0.0 -0.0 1.0
outer loop
vertex 10.3725646477282 20.6624351926435 0.0
vertex 27.3725646477282 16.6624351926435 0.0
vertex 31.3725646477282 20.6624351926435 0.0
endloop
endfacet
facet normal -0.0 -0.0 1.0
outer loop
vertex 31.3725646477282 20.6624351926435 0.0
vertex 27.3725646477282 16.6624351926435 0.0
vertex 31.3725646477282 6.66243519264351 0.0
endloop
endfacet
facet normal -0.0 -0.0 1.0
outer loop
vertex 10.3725646477282 26.6624351926435 0.0
vertex -9.62743535227177 26.6624351926435 0.0
vertex 10.3725646477282 20.6624351926435 0.0
endloop
endfacet
facet normal 0.0 0.0 -1.0
outer loop
vertex 10.3725646477282 26.6624351926435 -20.0
vertex -9.62743535227177 20.6624351926435 -20.0
vertex -9.62743535227177 26.6624351926435 -20.0
endloop
endfacet
facet normal 0.0 0.0 -1.0
outer loop
vertex -30.6274353522718 20.6624351926435 -20.0
vertex -26.6274353522718 16.6624351926435 -20.0
vertex -30.6274353522718 6.66243519264351 -20.0
endloop
endfacet
facet normal 0.0 0.0 -1.0
outer loop
vertex -26.6274353522718 16.6624351926435 -20.0
vertex -30.6274353522718 20.6624351926435 -20.0
vertex -9.62743535227177 20.6624351926435 -20.0
endloop
endfacet
facet normal 0.0 0.0 -1.0
outer loop
vertex -26.6274353522718 16.6624351926435 -20.0
vertex -9.62743535227177 20.6624351926435 -20.0
vertex 27.3725646477282 16.6624351926435 -20.0
endloop
endfacet
facet normal 0.0 0.0 -1.0
outer loop
vertex 27.3725646477282 16.6624351926435 -20.0
vertex -9.62743535227177 20.6624351926435 -20.0
vertex 10.3725646477282 20.6624351926435 -20.0
endloop
endfacet
facet normal 0.0 0.0 -1.0
outer loop
vertex 10.3725646477282 20.6624351926435 -20.0
vertex -9.62743535227177 20.6624351926435 -20.0
vertex 10.3725646477282 26.6624351926435 -20.0
endloop
endfacet
facet normal 0.0 0.0 -1.0
outer loop
vertex 27.3725646477282 16.6624351926435 -20.0
vertex 10.3725646477282 20.6624351926435 -20.0
vertex 31.3725646477282 20.6624351926435 -20.0
endloop
endfacet
facet normal 0.0 0.0 -1.0
outer loop
vertex 27.3725646477282 16.6624351926435 -20.0
vertex 31.3725646477282 20.6624351926435 -20.0
vertex 27.3725646477282 10.6624351926435 -20.0
endloop
endfacet
facet normal 0.0 0.0 -1.0
outer loop
vertex 27.3725646477282 10.6624351926435 -20.0
vertex 10.3725646477282 6.66243519264351 -20.0
vertex 10.3725646477282 10.6624351926435 -20.0
endloop
endfacet
facet normal 0.0 0.0 -1.0
outer loop
vertex 10.3725646477282 6.66243519264351 -20.0
vertex 27.3725646477282 10.6624351926435 -20.0
vertex 31.3725646477282 6.66243519264351 -20.0
endloop
endfacet
facet normal 0.0 0.0 -1.0
outer loop
vertex 31.3725646477282 6.66243519264351 -20.0
vertex 27.3725646477282 10.6624351926435 -20.0
vertex 31.3725646477282 20.6624351926435 -20.0
endloop
endfacet
facet normal 0.0 0.0 -1.0
outer loop
vertex -30.6274353522718 6.66243519264351 -20.0
vertex -26.6274353522718 10.6624351926435 -20.0
vertex -9.62743535227177 6.66243519264351 -20.0
endloop
endfacet
facet normal 0.0 0.0 -1.0
outer loop
vertex -26.6274353522718 10.6624351926435 -20.0
vertex -30.6274353522718 6.66243519264351 -20.0
vertex -26.6274353522718 16.6624351926435 -20.0
endloop
endfacet
facet normal 0.0 0.0 -1.0
outer loop
vertex -9.62743535227177 6.66243519264351 -20.0
vertex -26.6274353522718 10.6624351926435 -20.0
vertex -9.62743535227177 10.6624351926435 -20.0
endloop
endfacet
facet normal -1.0 0.0 0.0
outer loop
vertex -30.6274353522718 20.6624351926435 0.0
vertex -30.6274353522718 6.66243519264351 -20.0
vertex -30.6274353522718 6.66243519264351 0.0
endloop
endfacet
facet normal -1.0 0.0 0.0
outer loop
vertex -30.6274353522718 6.66243519264351 -20.0
vertex -30.6274353522718 20.6624351926435 0.0
vertex -30.6274353522718 20.6624351926435 -20.0
endloop
endfacet
facet normal -0.0 1.0 0.0
outer loop
vertex -30.6274353522718 20.6624351926435 0.0
vertex -9.62743535227177 20.6624351926435 -20.0
vertex -30.6274353522718 20.6624351926435 -20.0
endloop
endfacet
facet normal -0.0 1.0 0.0
outer loop
vertex -9.62743535227177 20.6624351926435 -20.0
vertex -30.6274353522718 20.6624351926435 0.0
vertex -9.62743535227177 20.6624351926435 0.0
endloop
endfacet
facet normal -1.0 0.0 0.0
outer loop
vertex -9.62743535227177 26.6624351926435 0.0
vertex -9.62743535227177 20.6624351926435 -20.0
vertex -9.62743535227177 20.6624351926435 0.0
endloop
endfacet
facet normal -1.0 0.0 0.0
outer loop
vertex -9.62743535227177 20.6624351926435 -20.0
vertex -9.62743535227177 26.6624351926435 0.0
vertex -9.62743535227177 26.6624351926435 -20.0
endloop
endfacet
facet normal -0.0 1.0 0.0
outer loop
vertex -9.62743535227177 26.6624351926435 -20.0
vertex -1.22010451533635 26.6624351926435 -12.5423227444648
vertex 10.3725646477282 26.6624351926435 -20.0
endloop
endfacet
facet normal -0.0 1.0 0.0
outer loop
vertex -1.22010451533635 26.6624351926435 -12.5423227444648
vertex -9.62743535227177 26.6624351926435 -20.0
vertex -1.82383717467485 26.6624351926435 -12.0434820856921
endloop
endfacet
facet normal -0.0 1.0 0.0
outer loop
vertex -1.82383717467485 26.6624351926435 -12.0434820856921
vertex -9.62743535227177 26.6624351926435 -20.0
vertex -2.27788867954221 26.6624351926435 -11.4053814997932
endloop
endfacet
facet normal -0.0 1.0 0.0
outer loop
vertex -2.27788867954221 26.6624351926435 -11.4053814997932
vertex -9.62743535227177 26.6624351926435 -20.0
vertex -9.62743535227177 26.6624351926435 0.0
endloop
endfacet
facet normal -0.0 1.0 0.0
outer loop
vertex 10.3725646477282 26.6624351926435 -20.0
vertex -1.22010451533635 26.6624351926435 -12.5423227444648
vertex -0.507834084545234 26.6624351926435 -12.8679083095893
endloop
endfacet
facet normal -0.0 1.0 0.0
outer loop
vertex 10.3725646477282 26.6624351926435 -20.0
vertex -0.507834084545234 26.6624351926435 -12.8679083095893
vertex 0.26443406492262 26.6624351926435 -12.9980506628578
endloop
endfacet
facet normal -0.0 1.0 0.0
outer loop
vertex -2.27788867954221 26.6624351926435 -11.4053814997932
vertex -9.62743535227177 26.6624351926435 0.0
vertex -2.55131617023731 26.6624351926435 -10.6715064871862
endloop
endfacet
facet normal -0.0 1.0 0.0
outer loop
vertex -2.55131617023731 26.6624351926435 -10.6715064871862
vertex -9.62743535227177 26.6624351926435 0.0
vertex -2.62548601512957 26.6624351926435 -9.89186941719439
endloop
endfacet
facet normal -0.0 1.0 0.0
outer loop
vertex -2.62548601512957 26.6624351926435 -9.89186941719439
vertex -9.62743535227177 26.6624351926435 0.0
vertex -2.49534366186105 26.6624351926435 -9.11960126772654
endloop
endfacet
facet normal -0.0 1.0 0.0
outer loop
vertex -2.49534366186105 26.6624351926435 -9.11960126772654
vertex -9.62743535227177 26.6624351926435 0.0
vertex -2.1697580967366 26.6624351926435 -8.40733083693542
endloop
endfacet
facet normal -0.0 1.0 0.0
outer loop
vertex -2.1697580967366 26.6624351926435 -8.40733083693542
vertex -9.62743535227177 26.6624351926435 0.0
vertex -1.67091743796384 26.6624351926435 -7.80359817759692
endloop
endfacet
facet normal -0.0 1.0 0.0
outer loop
vertex -1.67091743796384 26.6624351926435 -7.80359817759692
vertex -9.62743535227177 26.6624351926435 0.0
vertex -1.03281685206499 26.6624351926435 -7.34954667272956
endloop
endfacet
facet normal -0.0 1.0 0.0
outer loop
vertex -1.03281685206499 26.6624351926435 -7.34954667272956
vertex -9.62743535227177 26.6624351926435 0.0
vertex -0.298941839457975 26.6624351926435 -7.07611918203446
endloop
endfacet
facet normal -0.0 1.0 0.0
outer loop
vertex -0.298941839457975 26.6624351926435 -7.07611918203446
vertex -9.62743535227177 26.6624351926435 0.0
vertex 0.480695230533843 26.6624351926435 -7.0019493371422
endloop
endfacet
facet normal -0.0 1.0 0.0
outer loop
vertex 10.3725646477282 26.6624351926435 -20.0
vertex 2.91488739219306 26.6624351926435 -11.5926691630646
vertex 10.3725646477282 26.6624351926435 0.0
endloop
endfacet
facet normal -0.0 1.0 0.0
outer loop
vertex 2.91488739219306 26.6624351926435 -11.5926691630646
vertex 10.3725646477282 26.6624351926435 -20.0
vertex 2.41604673342031 26.6624351926435 -12.1964018224031
endloop
endfacet
facet normal -0.0 1.0 0.0
outer loop
vertex 2.41604673342031 26.6624351926435 -12.1964018224031
vertex 10.3725646477282 26.6624351926435 -20.0
vertex 1.77794614752146 26.6624351926435 -12.6504533272704
endloop
endfacet
facet normal -0.0 1.0 0.0
outer loop
vertex 1.77794614752146 26.6624351926435 -12.6504533272704
vertex 10.3725646477282 26.6624351926435 -20.0
vertex 1.04407113491444 26.6624351926435 -12.9238808179655
endloop
endfacet
facet normal -0.0 1.0 0.0
outer loop
vertex 1.04407113491444 26.6624351926435 -12.9238808179655
vertex 10.3725646477282 26.6624351926435 -20.0
vertex 0.26443406492262 26.6624351926435 -12.9980506628578
endloop
endfacet
facet normal -0.0 1.0 0.0
outer loop
vertex 10.3725646477282 26.6624351926435 0.0
vertex 2.91488739219306 26.6624351926435 -11.5926691630646
vertex 3.24047295731752 26.6624351926435 -10.8803987322735
endloop
endfacet
facet normal -0.0 1.0 0.0
outer loop
vertex 10.3725646477282 26.6624351926435 0.0
vertex 3.24047295731752 26.6624351926435 -10.8803987322735
vertex 3.37061531058603 26.6624351926435 -10.1081305828056
endloop
endfacet
facet normal -0.0 1.0 0.0
outer loop
vertex 10.3725646477282 26.6624351926435 0.0
vertex 3.37061531058603 26.6624351926435 -10.1081305828056
vertex 3.29644546569377 26.6624351926435 -9.32849351281379
endloop
endfacet
facet normal -0.0 1.0 0.0
outer loop
vertex 10.3725646477282 26.6624351926435 0.0
vertex 3.29644546569377 26.6624351926435 -9.32849351281379
vertex 3.02301797499867 26.6624351926435 -8.59461850020678
endloop
endfacet
facet normal -0.0 1.0 0.0
outer loop
vertex 10.3725646477282 26.6624351926435 0.0
vertex 3.02301797499867 26.6624351926435 -8.59461850020678
vertex 2.56896647013131 26.6624351926435 -7.95651791430792
endloop
endfacet
facet normal -0.0 1.0 0.0
outer loop
vertex 10.3725646477282 26.6624351926435 0.0
vertex 2.56896647013131 26.6624351926435 -7.95651791430792
vertex 1.96523381079281 26.6624351926435 -7.45767725553517
endloop
endfacet
facet normal -0.0 1.0 0.0
outer loop
vertex 10.3725646477282 26.6624351926435 0.0
vertex 1.96523381079281 26.6624351926435 -7.45767725553517
vertex 1.2529633800017 26.6624351926435 -7.13209169041071
endloop
endfacet
facet normal -0.0 1.0 0.0
outer loop
vertex 10.3725646477282 26.6624351926435 0.0
vertex 1.2529633800017 26.6624351926435 -7.13209169041071
vertex 0.480695230533843 26.6624351926435 -7.0019493371422
endloop
endfacet
facet normal -0.0 1.0 0.0
outer loop
vertex 10.3725646477282 26.6624351926435 0.0
vertex 0.480695230533843 26.6624351926435 -7.0019493371422
vertex -9.62743535227177 26.6624351926435 0.0
endloop
endfacet
facet normal 1.0 0.0 0.0
outer loop
vertex 10.3725646477282 26.6624351926435 -20.0
vertex 10.3725646477282 20.6624351926435 0.0
vertex 10.3725646477282 20.6624351926435 -20.0
endloop
endfacet
facet normal 1.0 0.0 0.0
outer loop
vertex 10.3725646477282 20.6624351926435 0.0
vertex 10.3725646477282 26.6624351926435 -20.0
vertex 10.3725646477282 26.6624351926435 0.0
endloop
endfacet
facet normal -0.0 1.0 0.0
outer loop
vertex 10.3725646477282 20.6624351926435 0.0
vertex 31.3725646477282 20.6624351926435 -20.0
vertex 10.3725646477282 20.6624351926435 -20.0
endloop
endfacet
facet normal -0.0 1.0 0.0
outer loop
vertex 31.3725646477282 20.6624351926435 -20.0
vertex 10.3725646477282 20.6624351926435 0.0
vertex 31.3725646477282 20.6624351926435 0.0
endloop
endfacet
facet normal 1.0 0.0 0.0
outer loop
vertex 31.3725646477282 20.6624351926435 -20.0
vertex 31.3725646477282 6.66243519264351 0.0
vertex 31.3725646477282 6.66243519264351 -20.0
endloop
endfacet
facet normal 1.0 0.0 0.0
outer loop
vertex 31.3725646477282 6.66243519264351 0.0
vertex 31.3725646477282 20.6624351926435 -20.0
vertex 31.3725646477282 20.6624351926435 0.0
endloop
endfacet
facet normal -0.0 -1.0 -0.0
outer loop
vertex 31.3725646477282 6.66243519264351 0.0
vertex 10.3725646477282 6.66243519264351 -20.0
vertex 31.3725646477282 6.66243519264351 -20.0
endloop
endfacet
facet normal -0.0 -1.0 -0.0
outer loop
vertex 10.3725646477282 6.66243519264351 -20.0
vertex 31.3725646477282 6.66243519264351 0.0
vertex 10.3725646477282 6.66243519264351 0.0
endloop
endfacet
facet normal -1.0 0.0 0.0
outer loop
vertex 10.3725646477282 10.6624351926435 0.0
vertex 10.3725646477282 6.66243519264351 -20.0
vertex 10.3725646477282 6.66243519264351 0.0
endloop
endfacet
facet normal -1.0 0.0 0.0
outer loop
vertex 10.3725646477282 6.66243519264351 -20.0
vertex 10.3725646477282 10.6624351926435 0.0
vertex 10.3725646477282 10.6624351926435 -20.0
endloop
endfacet
facet normal -0.0 1.0 0.0
outer loop
vertex 10.3725646477282 10.6624351926435 0.0
vertex 27.3725646477282 10.6624351926435 -20.0
vertex 10.3725646477282 10.6624351926435 -20.0
endloop
endfacet
facet normal -0.0 1.0 0.0
outer loop
vertex 27.3725646477282 10.6624351926435 -20.0
vertex 10.3725646477282 10.6624351926435 0.0
vertex 27.3725646477282 10.6624351926435 0.0
endloop
endfacet
facet normal -1.0 0.0 0.0
outer loop
vertex 27.3725646477282 16.6624351926435 0.0
vertex 27.3725646477282 10.6624351926435 -20.0
vertex 27.3725646477282 10.6624351926435 0.0
endloop
endfacet
facet normal -1.0 0.0 0.0
outer loop
vertex 27.3725646477282 10.6624351926435 -20.0
vertex 27.3725646477282 16.6624351926435 0.0
vertex 27.3725646477282 16.6624351926435 -20.0
endloop
endfacet
facet normal -0.0 -1.0 -0.0
outer loop
vertex 27.3725646477282 16.6624351926435 -20.0
vertex 1.04407113491444 16.6624351926435 -12.9238808179655
vertex -26.6274353522718 16.6624351926435 -20.0
endloop
endfacet
facet normal -0.0 -1.0 -0.0
outer loop
vertex 1.04407113491444 16.6624351926435 -12.9238808179655
vertex 27.3725646477282 16.6624351926435 -20.0
vertex 1.77794614752146 16.6624351926435 -12.6504533272704
endloop
endfacet
facet normal -0.0 -1.0 -0.0
outer loop
vertex 1.77794614752146 16.6624351926435 -12.6504533272704
vertex 27.3725646477282 16.6624351926435 -20.0
vertex 27.3725646477282 16.6624351926435 0.0
endloop
endfacet
facet normal -0.0 -1.0 -0.0
outer loop
vertex -26.6274353522718 16.6624351926435 -20.0
vertex 1.04407113491444 16.6624351926435 -12.9238808179655
vertex 0.26443406492262 16.6624351926435 -12.9980506628578
endloop
endfacet
facet normal -0.0 -1.0 -0.0
outer loop
vertex 1.77794614752146 16.6624351926435 -12.6504533272704
vertex 27.3725646477282 16.6624351926435 0.0
vertex 2.41604673342031 16.6624351926435 -12.1964018224031
endloop
endfacet
facet normal -0.0 -1.0 -0.0
outer loop
vertex 2.41604673342031 16.6624351926435 -12.1964018224031
vertex 27.3725646477282 16.6624351926435 0.0
vertex 2.91488739219306 16.6624351926435 -11.5926691630646
endloop
endfacet
facet normal -0.0 -1.0 -0.0
outer loop
vertex 2.91488739219306 16.6624351926435 -11.5926691630646
vertex 27.3725646477282 16.6624351926435 0.0
vertex 3.24047295731752 16.6624351926435 -10.8803987322735
endloop
endfacet
facet normal -0.0 -1.0 -0.0
outer loop
vertex 3.24047295731752 16.6624351926435 -10.8803987322735
vertex 27.3725646477282 16.6624351926435 0.0
vertex 3.37061531058603 16.6624351926435 -10.1081305828056
endloop
endfacet
facet normal -0.0 -1.0 -0.0
outer loop
vertex 3.37061531058603 16.6624351926435 -10.1081305828056
vertex 27.3725646477282 16.6624351926435 0.0
vertex 3.29644546569377 16.6624351926435 -9.32849351281379
endloop
endfacet
facet normal -0.0 -1.0 -0.0
outer loop
vertex 3.29644546569377 16.6624351926435 -9.32849351281379
vertex 27.3725646477282 16.6624351926435 0.0
vertex 3.02301797499867 16.6624351926435 -8.59461850020678
endloop
endfacet
facet normal -0.0 -1.0 -0.0
outer loop
vertex 3.02301797499867 16.6624351926435 -8.59461850020678
vertex 27.3725646477282 16.6624351926435 0.0
vertex 2.56896647013131 16.6624351926435 -7.95651791430792
endloop
endfacet
facet normal -0.0 -1.0 -0.0
outer loop
vertex 2.56896647013131 16.6624351926435 -7.95651791430792
vertex 27.3725646477282 16.6624351926435 0.0
vertex 1.96523381079281 16.6624351926435 -7.45767725553517
endloop
endfacet
facet normal -0.0 -1.0 -0.0
outer loop
vertex 1.96523381079281 16.6624351926435 -7.45767725553517
vertex 27.3725646477282 16.6624351926435 0.0
vertex 1.2529633800017 16.6624351926435 -7.13209169041071
endloop
endfacet
facet normal -0.0 -1.0 -0.0
outer loop
vertex 1.2529633800017 16.6624351926435 -7.13209169041071
vertex 27.3725646477282 16.6624351926435 0.0
vertex 0.480695230533843 16.6624351926435 -7.0019493371422
endloop
endfacet
facet normal -0.0 -1.0 -0.0
outer loop
vertex -26.6274353522718 16.6624351926435 -20.0
vertex -1.22010451533635 16.6624351926435 -12.5423227444648
vertex -26.6274353522718 16.6624351926435 0.0
endloop
endfacet
facet normal -0.0 -1.0 -0.0
outer loop
vertex -1.22010451533635 16.6624351926435 -12.5423227444648
vertex -26.6274353522718 16.6624351926435 -20.0
vertex -0.507834084545234 16.6624351926435 -12.8679083095893
endloop
endfacet
facet normal -0.0 -1.0 -0.0
outer loop
vertex -0.507834084545234 16.6624351926435 -12.8679083095893
vertex -26.6274353522718 16.6624351926435 -20.0
vertex 0.26443406492262 16.6624351926435 -12.9980506628578
endloop
endfacet
facet normal -0.0 -1.0 -0.0
outer loop
vertex -26.6274353522718 16.6624351926435 0.0
vertex -1.22010451533635 16.6624351926435 -12.5423227444648
vertex -1.82383717467485 16.6624351926435 -12.0434820856921
endloop
endfacet
facet normal -0.0 -1.0 -0.0
outer loop
vertex -26.6274353522718 16.6624351926435 0.0
vertex -1.82383717467485 16.6624351926435 -12.0434820856921
vertex -2.27788867954221 16.6624351926435 -11.4053814997932
endloop
endfacet
facet normal -0.0 -1.0 -0.0
outer loop
vertex -26.6274353522718 16.6624351926435 0.0
vertex -2.27788867954221 16.6624351926435 -11.4053814997932
vertex -2.55131617023731 16.6624351926435 -10.6715064871862
endloop
endfacet
facet normal -0.0 -1.0 -0.0
outer loop
vertex -26.6274353522718 16.6624351926435 0.0
vertex -2.55131617023731 16.6624351926435 -10.6715064871862
vertex -2.62548601512957 16.6624351926435 -9.89186941719439
endloop
endfacet
facet normal -0.0 -1.0 -0.0
outer loop
vertex -26.6274353522718 16.6624351926435 0.0
vertex -2.62548601512957 16.6624351926435 -9.89186941719439
vertex -2.49534366186105 16.6624351926435 -9.11960126772654
endloop
endfacet
facet normal -0.0 -1.0 -0.0
outer loop
vertex -26.6274353522718 16.6624351926435 0.0
vertex -2.49534366186105 16.6624351926435 -9.11960126772654
vertex -2.1697580967366 16.6624351926435 -8.40733083693542
endloop
endfacet
facet normal -0.0 -1.0 -0.0
outer loop
vertex -26.6274353522718 16.6624351926435 0.0
vertex -2.1697580967366 16.6624351926435 -8.40733083693542
vertex -1.67091743796384 16.6624351926435 -7.80359817759692
endloop
endfacet
facet normal -0.0 -1.0 -0.0
outer loop
vertex -26.6274353522718 16.6624351926435 0.0
vertex -1.67091743796384 16.6624351926435 -7.80359817759692
vertex -1.03281685206499 16.6624351926435 -7.34954667272956
endloop
endfacet
facet normal -0.0 -1.0 -0.0
outer loop
vertex -26.6274353522718 16.6624351926435 0.0
vertex -1.03281685206499 16.6624351926435 -7.34954667272956
vertex -0.298941839457975 16.6624351926435 -7.07611918203446
endloop
endfacet
facet normal -0.0 -1.0 -0.0
outer loop
vertex -26.6274353522718 16.6624351926435 0.0
vertex -0.298941839457975 16.6624351926435 -7.07611918203446
vertex 0.480695230533843 16.6624351926435 -7.0019493371422
endloop
endfacet
facet normal -0.0 -1.0 -0.0
outer loop
vertex -26.6274353522718 16.6624351926435 0.0
vertex 0.480695230533843 16.6624351926435 -7.0019493371422
vertex 27.3725646477282 16.6624351926435 0.0
endloop
endfacet
facet normal 1.0 0.0 0.0
outer loop
vertex -26.6274353522718 16.6624351926435 -20.0
vertex -26.6274353522718 10.6624351926435 0.0
vertex -26.6274353522718 10.6624351926435 -20.0
endloop
endfacet
facet normal 1.0 0.0 0.0
outer loop
vertex -26.6274353522718 10.6624351926435 0.0
vertex -26.6274353522718 16.6624351926435 -20.0
vertex -26.6274353522718 16.6624351926435 0.0
endloop
endfacet
facet normal -0.0 1.0 0.0
outer loop
vertex -26.6274353522718 10.6624351926435 0.0
vertex -9.62743535227177 10.6624351926435 -20.0
vertex -26.6274353522718 10.6624351926435 -20.0
endloop
endfacet
facet normal -0.0 1.0 0.0
outer loop
vertex -9.62743535227177 10.6624351926435 -20.0
vertex -26.6274353522718 10.6624351926435 0.0
vertex -9.62743535227177 10.6624351926435 0.0
endloop
endfacet
facet normal 1.0 0.0 0.0
outer loop
vertex -9.62743535227177 10.6624351926435 -20.0
vertex -9.62743535227177 6.66243519264351 0.0
vertex -9.62743535227177 6.66243519264351 -20.0
endloop
endfacet
facet normal 1.0 0.0 0.0
outer loop
vertex -9.62743535227177 6.66243519264351 0.0
vertex -9.62743535227177 10.6624351926435 -20.0
vertex -9.62743535227177 10.6624351926435 0.0
endloop
endfacet
facet normal -0.0 -1.0 -0.0
outer loop
vertex -9.62743535227177 6.66243519264351 0.0
vertex -30.6274353522718 6.66243519264351 -20.0
vertex -9.62743535227177 6.66243519264351 -20.0
endloop
endfacet
facet normal -0.0 -1.0 -0.0
outer loop
vertex -30.6274353522718 6.66243519264351 -20.0
vertex -9.62743535227177 6.66243519264351 0.0
vertex -30.6274353522718 6.66243519264351 0.0
endloop
endfacet
facet normal 0.999350220952601 1.28589883499545e-031 -0.0360435276018706
outer loop
vertex -2.62548601512957 26.6624351926435 -9.89186941719439
vertex -2.49534366186105 16.6624351926435 -9.11960126772654
vertex -2.62548601512957 16.6624351926435 -9.89186941719439
endloop
endfacet
facet normal 0.955969436529762 -1.04796029421426e-032 -0.293466244091155
outer loop
vertex -2.49534366186105 16.6624351926435 -9.11960126772654
vertex -2.62548601512957 26.6624351926435 -9.89186941719439
vertex -2.49534366186105 26.6624351926435 -9.11960126772654
endloop
endfacet
facet normal 0.955969436529762 -1.04796029421426e-032 -0.293466244091155
outer loop
vertex -2.49534366186105 26.6624351926435 -9.11960126772654
vertex -2.1697580967366 16.6624351926435 -8.40733083693542
vertex -2.49534366186105 16.6624351926435 -9.11960126772654
endloop
endfacet
facet normal 0.847440914821609 -1.48834921761685e-031 -0.530889721021526
outer loop
vertex -2.1697580967366 16.6624351926435 -8.40733083693542
vertex -2.49534366186105 26.6624351926435 -9.11960126772654
vertex -2.1697580967366 26.6624351926435 -8.40733083693542
endloop
endfacet
facet normal 0.847440914821609 -1.48834921761685e-031 -0.530889721021526
outer loop
vertex -2.1697580967366 26.6624351926435 -8.40733083693542
vertex -1.67091743796384 16.6624351926435 -7.80359817759692
vertex -2.1697580967366 16.6624351926435 -8.40733083693542
endloop
endfacet
facet normal 0.681160695230692 -2.77047386624507e-031 -0.732133940801026
outer loop
vertex -1.67091743796384 16.6624351926435 -7.80359817759692
vertex -2.1697580967366 26.6624351926435 -8.40733083693542
vertex -1.67091743796384 26.6624351926435 -7.80359817759692
endloop
endfacet
facet normal 0.468460499931075 -3.86379529931323e-031 -0.88348444242348
outer loop
vertex -1.03281685206499 26.6624351926435 -7.34954667272956
vertex -1.67091743796384 16.6624351926435 -7.80359817759692
vertex -1.67091743796384 26.6624351926435 -7.80359817759692
endloop
endfacet
facet normal 0.681160695230692 -2.77047386624507e-031 -0.732133940801026
outer loop
vertex -1.67091743796384 16.6624351926435 -7.80359817759692
vertex -1.03281685206499 26.6624351926435 -7.34954667272956
vertex -1.03281685206499 16.6624351926435 -7.34954667272956
endloop
endfacet
facet normal 0.223835495728735 -4.69380546795682e-031 -0.974626939321847
outer loop
vertex -0.298941839457975 26.6624351926435 -7.07611918203446
vertex -1.03281685206499 16.6624351926435 -7.34954667272956
vertex -1.03281685206499 26.6624351926435 -7.34954667272956
endloop
endfacet
facet normal 0.468460499931075 -3.86379529931323e-031 -0.88348444242348
outer loop
vertex -1.03281685206499 16.6624351926435 -7.34954667272956
vertex -0.298941839457975 26.6624351926435 -7.07611918203446
vertex -0.298941839457975 16.6624351926435 -7.07611918203446
endloop
endfacet
facet normal -0.0360435276018708 -5.20394055083945e-031 -0.999350220952601
outer loop
vertex 0.480695230533843 26.6624351926435 -7.0019493371422
vertex -0.298941839457975 16.6624351926435 -7.07611918203446
vertex -0.298941839457975 26.6624351926435 -7.07611918203446
endloop
endfacet
facet normal 0.223835495728735 -4.69380546795682e-031 -0.974626939321847
outer loop
vertex -0.298941839457975 16.6624351926435 -7.07611918203446
vertex 0.480695230533843 26.6624351926435 -7.0019493371422
vertex 0.480695230533843 16.6624351926435 -7.0019493371422
endloop
endfacet
facet normal -0.293466244091155 -5.35943568510075e-031 -0.955969436529762
outer loop
vertex 1.2529633800017 26.6624351926435 -7.13209169041071
vertex 0.480695230533843 16.6624351926435 -7.0019493371422
vertex 0.480695230533843 26.6624351926435 -7.0019493371422
endloop
endfacet
facet normal -0.0360435276018708 -5.20394055083945e-031 -0.999350220952601
outer loop
vertex 0.480695230533843 16.6624351926435 -7.0019493371422
vertex 1.2529633800017 26.6624351926435 -7.13209169041071
vertex 1.2529633800017 16.6624351926435 -7.13209169041071
endloop
endfacet
facet normal -0.530889721021526 -5.14969413430867e-031 -0.847440914821609
outer loop
vertex 1.96523381079281 26.6624351926435 -7.45767725553517
vertex 1.2529633800017 16.6624351926435 -7.13209169041071
vertex 1.2529633800017 26.6624351926435 -7.13209169041071
endloop
endfacet
facet normal -0.293466244091155 -5.35943568510075e-031 -0.955969436529762
outer loop
vertex 1.2529633800017 16.6624351926435 -7.13209169041071
vertex 1.96523381079281 26.6624351926435 -7.45767725553517
vertex 1.96523381079281 16.6624351926435 -7.45767725553517
endloop
endfacet
facet normal -0.732133940801027 -4.58900943853539e-031 -0.681160695230692
outer loop
vertex 2.56896647013131 26.6624351926435 -7.95651791430792
vertex 1.96523381079281 16.6624351926435 -7.45767725553517
vertex 1.96523381079281 26.6624351926435 -7.45767725553517
endloop
endfacet
facet normal -0.530889721021526 -5.14969413430867e-031 -0.847440914821609
outer loop
vertex 1.96523381079281 16.6624351926435 -7.45767725553517
vertex 2.56896647013131 26.6624351926435 -7.95651791430792
vertex 2.56896647013131 16.6624351926435 -7.95651791430792
endloop
endfacet
facet normal -0.732133940801027 -4.58900943853539e-031 -0.681160695230692
outer loop
vertex 2.56896647013131 26.6624351926435 -7.95651791430792
vertex 3.02301797499867 16.6624351926435 -8.59461850020678
vertex 2.56896647013131 16.6624351926435 -7.95651791430792
endloop
endfacet
facet normal -0.88348444242348 -3.71559133322259e-031 -0.468460499931075
outer loop
vertex 3.02301797499867 16.6624351926435 -8.59461850020678
vertex 2.56896647013131 26.6624351926435 -7.95651791430792
vertex 3.02301797499867 26.6624351926435 -8.59461850020678
endloop
endfacet
facet normal -0.88348444242348 -3.71559133322259e-031 -0.468460499931075
outer loop
vertex 3.02301797499867 26.6624351926435 -8.59461850020678
vertex 3.29644546569377 16.6624351926435 -9.32849351281379
vertex 3.02301797499867 16.6624351926435 -8.59461850020678
endloop
endfacet
facet normal -0.974626939321847 -2.58896181885567e-031 -0.223835495728735
outer loop
vertex 3.29644546569377 16.6624351926435 -9.32849351281379
vertex 3.02301797499867 26.6624351926435 -8.59461850020678
vertex 3.29644546569377 26.6624351926435 -9.32849351281379
endloop
endfacet
facet normal -0.974626939321847 -2.58896181885567e-031 -0.223835495728735
outer loop
vertex 3.29644546569377 26.6624351926435 -9.32849351281379
vertex 3.37061531058603 16.6624351926435 -10.1081305828056
vertex 3.29644546569377 16.6624351926435 -9.32849351281379
endloop
endfacet
facet normal -0.999350220952601 -1.28589883499544e-031 0.0360435276018711
outer loop
vertex 3.37061531058603 16.6624351926435 -10.1081305828056
vertex 3.29644546569377 26.6624351926435 -9.32849351281379
vertex 3.37061531058603 26.6624351926435 -10.1081305828056
endloop
endfacet
facet normal -0.999350220952601 -1.28589883499544e-031 0.0360435276018711
outer loop
vertex 3.37061531058603 26.6624351926435 -10.1081305828056
vertex 3.24047295731752 16.6624351926435 -10.8803987322735
vertex 3.37061531058603 16.6624351926435 -10.1081305828056
endloop
endfacet
facet normal -0.955969436529762 1.04796029421425e-032 0.293466244091155
outer loop
vertex 3.24047295731752 16.6624351926435 -10.8803987322735
vertex 3.37061531058603 26.6624351926435 -10.1081305828056
vertex 3.24047295731752 26.6624351926435 -10.8803987322735
endloop
endfacet
facet normal -0.955969436529762 1.04796029421425e-032 0.293466244091155
outer loop
vertex 3.24047295731752 26.6624351926435 -10.8803987322735
vertex 2.91488739219306 16.6624351926435 -11.5926691630646
vertex 3.24047295731752 16.6624351926435 -10.8803987322735
endloop
endfacet
facet normal -0.847440914821609 1.48834921761685e-031 0.530889721021526
outer loop
vertex 2.91488739219306 16.6624351926435 -11.5926691630646
vertex 3.24047295731752 26.6624351926435 -10.8803987322735
vertex 2.91488739219306 26.6624351926435 -11.5926691630646
endloop
endfacet
facet normal -0.847440914821609 1.48834921761685e-031 0.530889721021526
outer loop
vertex 2.91488739219306 26.6624351926435 -11.5926691630646
vertex 2.41604673342031 16.6624351926435 -12.1964018224031
vertex 2.91488739219306 16.6624351926435 -11.5926691630646
endloop
endfacet
facet normal -0.681160695230692 2.77047386624507e-031 0.732133940801026
outer loop
vertex 2.41604673342031 16.6624351926435 -12.1964018224031
vertex 2.91488739219306 26.6624351926435 -11.5926691630646
vertex 2.41604673342031 26.6624351926435 -12.1964018224031
endloop
endfacet
facet normal -0.681160695230692 2.77047386624507e-031 0.732133940801026
outer loop
vertex 2.41604673342031 16.6624351926435 -12.1964018224031
vertex 1.77794614752146 26.6624351926435 -12.6504533272704
vertex 1.77794614752146 16.6624351926435 -12.6504533272704
endloop
endfacet
facet normal -0.468460499931075 3.86379529931323e-031 0.88348444242348
outer loop
vertex 1.77794614752146 26.6624351926435 -12.6504533272704
vertex 2.41604673342031 16.6624351926435 -12.1964018224031
vertex 2.41604673342031 26.6624351926435 -12.1964018224031
endloop
endfacet
facet normal -0.468460499931075 3.86379529931323e-031 0.88348444242348
outer loop
vertex 1.77794614752146 16.6624351926435 -12.6504533272704
vertex 1.04407113491444 26.6624351926435 -12.9238808179655
vertex 1.04407113491444 16.6624351926435 -12.9238808179655
endloop
endfacet
facet normal -0.223835495728736 4.69380546795682e-031 0.974626939321847
outer loop
vertex 1.04407113491444 26.6624351926435 -12.9238808179655
vertex 1.77794614752146 16.6624351926435 -12.6504533272704
vertex 1.77794614752146 26.6624351926435 -12.6504533272704
endloop
endfacet
facet normal -0.223835495728736 4.69380546795682e-031 0.974626939321847
outer loop
vertex 1.04407113491444 16.6624351926435 -12.9238808179655
vertex 0.26443406492262 26.6624351926435 -12.9980506628578
vertex 0.26443406492262 16.6624351926435 -12.9980506628578
endloop
endfacet
facet normal 0.03604352760187 5.20394055083945e-031 0.999350220952601
outer loop
vertex 0.26443406492262 26.6624351926435 -12.9980506628578
vertex 1.04407113491444 16.6624351926435 -12.9238808179655
vertex 1.04407113491444 26.6624351926435 -12.9238808179655
endloop
endfacet
facet normal 0.03604352760187 5.20394055083945e-031 0.999350220952601
outer loop
vertex 0.26443406492262 16.6624351926435 -12.9980506628578
vertex -0.507834084545234 26.6624351926435 -12.8679083095893
vertex -0.507834084545234 16.6624351926435 -12.8679083095893
endloop
endfacet
facet normal 0.293466244091156 5.35943568510075e-031 0.955969436529762
outer loop
vertex -0.507834084545234 26.6624351926435 -12.8679083095893
vertex 0.26443406492262 16.6624351926435 -12.9980506628578
vertex 0.26443406492262 26.6624351926435 -12.9980506628578
endloop
endfacet
facet normal 0.293466244091156 5.35943568510075e-031 0.955969436529762
outer loop
vertex -0.507834084545234 16.6624351926435 -12.8679083095893
vertex -1.22010451533635 26.6624351926435 -12.5423227444648
vertex -1.22010451533635 16.6624351926435 -12.5423227444648
endloop
endfacet
facet normal 0.530889721021526 5.14969413430867e-031 0.84744091482161
outer loop
vertex -1.22010451533635 26.6624351926435 -12.5423227444648
vertex -0.507834084545234 16.6624351926435 -12.8679083095893
vertex -0.507834084545234 26.6624351926435 -12.8679083095893
endloop
endfacet
facet normal 0.530889721021526 5.14969413430867e-031 0.84744091482161
outer loop
vertex -1.22010451533635 16.6624351926435 -12.5423227444648
vertex -1.82383717467485 26.6624351926435 -12.0434820856921
vertex -1.82383717467485 16.6624351926435 -12.0434820856921
endloop
endfacet
facet normal 0.732133940801026 4.58900943853539e-031 0.681160695230692
outer loop
vertex -1.82383717467485 26.6624351926435 -12.0434820856921
vertex -1.22010451533635 16.6624351926435 -12.5423227444648
vertex -1.22010451533635 26.6624351926435 -12.5423227444648
endloop
endfacet
facet normal 0.732133940801026 4.58900943853539e-031 0.681160695230692
outer loop
vertex -1.82383717467485 26.6624351926435 -12.0434820856921
vertex -2.27788867954221 16.6624351926435 -11.4053814997932
vertex -1.82383717467485 16.6624351926435 -12.0434820856921
endloop
endfacet
facet normal 0.88348444242348 3.7155913332226e-031 0.468460499931076
outer loop
vertex -2.27788867954221 16.6624351926435 -11.4053814997932
vertex -1.82383717467485 26.6624351926435 -12.0434820856921
vertex -2.27788867954221 26.6624351926435 -11.4053814997932
endloop
endfacet
facet normal 0.88348444242348 3.7155913332226e-031 0.468460499931076
outer loop
vertex -2.27788867954221 26.6624351926435 -11.4053814997932
vertex -2.55131617023731 16.6624351926435 -10.6715064871862
vertex -2.27788867954221 16.6624351926435 -11.4053814997932
endloop
endfacet
facet normal 0.974626939321847 2.58896181885568e-031 0.223835495728736
outer loop
vertex -2.55131617023731 16.6624351926435 -10.6715064871862
vertex -2.27788867954221 26.6624351926435 -11.4053814997932
vertex -2.55131617023731 26.6624351926435 -10.6715064871862
endloop
endfacet
facet normal 0.974626939321847 2.58896181885568e-031 0.223835495728736
outer loop
vertex -2.55131617023731 26.6624351926435 -10.6715064871862
vertex -2.62548601512957 16.6624351926435 -9.89186941719439
vertex -2.55131617023731 16.6624351926435 -10.6715064871862
endloop
endfacet
facet normal 0.999350220952601 1.28589883499545e-031 -0.0360435276018706
outer loop
vertex -2.62548601512957 16.6624351926435 -9.89186941719439
vertex -2.55131617023731 26.6624351926435 -10.6715064871862
vertex -2.62548601512957 26.6624351926435 -9.89186941719439
endloop
endfacet
endsolid pseyemount
